<?xml version="1.0" encoding="UTF-8"?>
<svg xmlns="http://www.w3.org/2000/svg" viewBox="0 0 512 512" width="512" height="512" >
<path d="M0 0 C168.96 0 337.92 0 512 0 C512 168.96 512 337.92 512 512 C343.04 512 174.08 512 0 512 C0 343.04 0 174.08 0 0 Z " fill="#FEFEFE" transform="translate(0,0)"/>
<path d="M0 0 C13.53 0 27.06 0 41 0 C49.47448192 15.90405199 57.55640916 31.9908612 65.59350586 48.11834717 C67.33555674 51.61286001 69.08000316 55.10617664 70.82421875 58.59960938 C74.21842621 65.39860349 77.61007742 72.19886828 81 79 C83.2875696 76.01692893 85.07242811 73.10063292 86.75 69.73046875 C87.27053955 68.68810059 87.7910791 67.64573242 88.32739258 66.57177734 C88.87935303 65.45496582 89.43131348 64.3381543 90 63.1875 C90.57451904 62.0320166 91.14903809 60.8765332 91.7409668 59.68603516 C95.96368534 51.16607609 100.09068898 42.60204222 104.17236328 34.01367188 C108.00635956 25.95252146 111.97751874 17.9685863 116 10 C117.65 6.7 119.3 3.4 121 0 C139.48 0 157.96 0 177 0 C177 18.48 177 36.96 177 56 C179.475 53.525 179.475 53.525 182 51 C182.65742188 50.35417969 183.31484375 49.70835937 183.9921875 49.04296875 C184.61351562 48.43066406 185.23484375 47.81835938 185.875 47.1875 C186.49117187 46.58292969 187.10734375 45.97835937 187.7421875 45.35546875 C189.662274 43.35233352 191.48945431 41.31242847 193.30859375 39.21875 C196.83946002 35.15637066 200.4907533 31.2237137 204.1875 27.3125 C209.48512786 21.68802112 214.7558592 16.04146923 219.9675293 10.3371582 C221.30219622 8.88267322 222.65104406 7.4412426 224 6 C224.59029747 5.22190979 224.59029747 5.22190979 225.19252014 4.42810059 C227.34331741 1.82146648 228.99275474 0.22504423 232.35029602 -0.52511597 C235.20755777 -0.69365457 238.00631305 -0.67478992 240.8671875 -0.5859375 C242.41927414 -0.57320297 242.41927414 -0.57320297 244.00271606 -0.56021118 C247.29455449 -0.5267317 250.58390709 -0.45145876 253.875 -0.375 C256.11194369 -0.34489352 258.34892593 -0.31751892 260.5859375 -0.29296875 C266.05813404 -0.22695883 271.52888941 -0.12666514 277 0 C270.71980983 7.37524938 270.71980983 7.37524938 267.73828125 10.54296875 C267.18213135 11.1359375 266.62598145 11.72890625 266.05297852 12.33984375 C265.47862061 12.94957031 264.9042627 13.55929688 264.3125 14.1875 C259.86298517 18.92924115 255.43956808 23.69131401 251.0625 28.5 C247.6653395 32.22046275 244.20505509 35.83218405 240.609375 39.359375 C238.20255376 41.81293063 235.9925772 44.4282586 233.75 47.03125 C231.5220191 49.53772851 229.1455537 51.86599983 226.75390625 54.21484375 C224.28414153 56.72861319 222.01039431 59.39757968 219.7109375 62.06640625 C217.25809972 64.83844894 214.64889006 67.41571701 212 70 C213.3875818 73.13879381 214.99523408 75.22254795 217.44921875 77.609375 C218.13306641 78.28226562 218.81691406 78.95515625 219.52148438 79.6484375 C220.59366211 80.68871094 220.59366211 80.68871094 221.6875 81.75 C226.47057275 86.41338511 231.06445277 91.13034181 235.42114258 96.19628906 C237.50658179 98.57872681 239.7321138 100.79179501 242 103 C244.93118191 105.89591958 247.76403174 108.80242571 250.4375 111.9375 C253.30174193 115.28927247 256.36357709 118.40530451 259.5 121.5 C263.88342868 125.83073254 268.02240029 130.29511908 272 135 C273.03539523 136.20987177 274.07150477 137.41913245 275.1081543 138.62792969 C275.64941452 139.25914734 276.19067474 139.89036499 276.74833679 140.54071045 C277.16138565 141.022276 277.57443451 141.50384155 278 142 C271.36650099 142.28086114 264.73455257 142.47232045 258.09643555 142.60424805 C255.84292324 142.65928262 253.58979864 142.73414091 251.33764648 142.82983398 C230.58523183 143.68896649 230.58523183 143.68896649 224.73556519 138.42123413 C222.60223564 136.09196625 220.79142515 133.59743647 219 131 C217.76885851 129.57964238 216.52189055 128.17272281 215.25390625 126.78515625 C214.44010498 125.83406982 214.44010498 125.83406982 213.60986328 124.86376953 C210.81726909 121.63072979 207.87024029 118.54298537 204.9375 115.4375 C203.62619811 114.04306652 202.3150029 112.64853271 201.00390625 111.25390625 C200.01221436 110.20033936 200.01221436 110.20033936 199.00048828 109.12548828 C195.78805887 105.71233104 192.57937548 102.29571912 189.375 98.875 C188.80773193 98.27228271 188.24046387 97.66956543 187.65600586 97.04858398 C187.1172583 96.47309814 186.57851074 95.8976123 186.0234375 95.3046875 C185.32613525 94.5619458 185.32613525 94.5619458 184.61474609 93.80419922 C182.34053243 91.26315916 180.18310693 88.61972832 178 86 C177.67 104.48 177.34 122.96 177 142 C165.12 142 153.24 142 141 142 C141 109.66 141 77.32 141 44 C140.34 44 139.68 44 139 44 C138.63084473 45.22654297 138.26168945 46.45308594 137.88134766 47.71679688 C135.80089508 53.94041702 132.85365885 59.68496138 129.8984375 65.53125 C129.29604798 66.73295901 128.69413953 67.93490928 128.09268188 69.13708496 C126.83383002 71.65020921 125.57110897 74.16133398 124.30517578 76.67089844 C122.70976611 79.83370339 121.12114188 82.99985012 119.53505802 86.16734028 C113.72201324 97.77432185 107.90825829 109.38007627 101.7482605 120.80810547 C99.62497667 124.75504539 97.68738381 128.74429019 95.8125 132.8125 C93.53540059 137.32338443 91.91883145 140.14383719 87 142 C81.7876774 142.71679175 77.7117817 142.85589085 72.9375 140.46875 C69.24595915 137.36628482 67.58790074 134.28417003 65.5 130 C65.08621094 129.18402344 64.67242187 128.36804688 64.24609375 127.52734375 C62.81424507 124.69286778 61.40699849 121.84688786 60 119 C58.56673635 116.13010032 57.13136368 113.26126665 55.69519043 110.39282227 C54.240665 107.48612788 52.79090597 104.57735787 51.34960938 101.6640625 C48.06321534 95.03720918 44.68175848 88.47333771 41.21875 81.9375 C35.34118732 70.8340065 29.76066829 59.58739345 24.17724609 48.33398438 C16.73752139 33.35009849 9.27906854 18.35984035 0.93005371 3.85644531 C0 2 0 2 0 0 Z " fill="#167138" transform="translate(113,185)"/>
<path d="M0 0 C13.53 0 27.06 0 41 0 C49.47448192 15.90405199 57.55640916 31.9908612 65.59350586 48.11834717 C67.33555674 51.61286001 69.08000316 55.10617664 70.82421875 58.59960938 C74.21842621 65.39860349 77.61007742 72.19886828 81 79 C83.2875696 76.01692893 85.07242811 73.10063292 86.75 69.73046875 C87.27053955 68.68810059 87.7910791 67.64573242 88.32739258 66.57177734 C88.87935303 65.45496582 89.43131348 64.3381543 90 63.1875 C90.57451904 62.0320166 91.14903809 60.8765332 91.7409668 59.68603516 C95.96368534 51.16607609 100.09068898 42.60204222 104.17236328 34.01367188 C108.00635956 25.95252146 111.97751874 17.9685863 116 10 C117.65 6.7 119.3 3.4 121 0 C134.53 0 148.06 0 162 0 C156.66364199 11.37256624 151.21960109 22.6683216 145.54370117 33.87548828 C144.87238159 35.20555908 144.87238159 35.20555908 144.1875 36.5625 C143.78917969 37.34753906 143.39085937 38.13257813 142.98046875 38.94140625 C141.89354502 41.11530772 141.89354502 41.11530772 141 44 C140.34 44 139.68 44 139 44 C138.63084473 45.22654297 138.26168945 46.45308594 137.88134766 47.71679688 C135.80089508 53.94041702 132.85365885 59.68496138 129.8984375 65.53125 C129.29604798 66.73295901 128.69413953 67.93490928 128.09268188 69.13708496 C126.83383002 71.65020921 125.57110897 74.16133398 124.30517578 76.67089844 C122.70976611 79.83370339 121.12114188 82.99985012 119.53505802 86.16734028 C113.72201324 97.77432185 107.90825829 109.38007627 101.7482605 120.80810547 C99.62497667 124.75504539 97.68738381 128.74429019 95.8125 132.8125 C93.53540059 137.32338443 91.91883145 140.14383719 87 142 C81.7876774 142.71679175 77.7117817 142.85589085 72.9375 140.46875 C69.24595915 137.36628482 67.58790074 134.28417003 65.5 130 C65.08621094 129.18402344 64.67242187 128.36804688 64.24609375 127.52734375 C62.81424507 124.69286778 61.40699849 121.84688786 60 119 C58.56673635 116.13010032 57.13136368 113.26126665 55.69519043 110.39282227 C54.240665 107.48612788 52.79090597 104.57735787 51.34960938 101.6640625 C48.06321534 95.03720918 44.68175848 88.47333771 41.21875 81.9375 C35.34118732 70.8340065 29.76066829 59.58739345 24.17724609 48.33398438 C16.73752139 33.35009849 9.27906854 18.35984035 0.93005371 3.85644531 C0 2 0 2 0 0 Z " fill="#379640" transform="translate(113,185)"/>
<path d="M0 0 C4.62 0 9.24 0 14 0 C14 18.81 14 37.62 14 57 C13.67 57 13.34 57 13 57 C13 38.85 13 20.7 13 2 C2.44726215 1.69760838 2.44726215 1.69760838 -1.125 6.5 C-2.12589749 8.31044693 -3.07578353 10.14923318 -4 12 C-4.78258612 13.46171517 -5.56939432 14.92117418 -6.359375 16.37890625 C-8.615961 20.56432556 -10.8174442 24.775542 -13 29 C-13.33 28.34 -13.66 27.68 -14 27 C-12.93603516 24.40209961 -12.93603516 24.40209961 -11.2890625 21.15234375 C-10.70382812 19.99025391 -10.11859375 18.82816406 -9.515625 17.63085938 C-9.20560547 17.0252417 -8.89558594 16.41962402 -8.57617188 15.7956543 C-7.62889124 13.9451017 -6.69235147 12.08943648 -5.7578125 10.23242188 C-1.16743708 1.16743708 -1.16743708 1.16743708 0 0 Z " fill="#02411E" transform="translate(275,185)"/>
<path d="M0 0 C13.53 0 27.06 0 41 0 C42.5675 2.97 44.135 5.94 45.75 9 C46.2356543 9.91910156 46.72130859 10.83820313 47.22167969 11.78515625 C48.06067363 13.37712849 48.89598943 14.97104216 49.72851562 16.56640625 C50.56224146 18.16213956 51.40441978 19.75349128 52.25585938 21.33984375 C53.23096563 23.19607011 54.12403242 25.09498312 55 27 C54.67 27.66 54.34 28.32 54 29 C53.71278076 28.45061768 53.42556152 27.90123535 53.12963867 27.33520508 C51.81713603 24.82682556 50.50233934 22.3196554 49.1875 19.8125 C48.73568359 18.94818359 48.28386719 18.08386719 47.81835938 17.19335938 C46.01488381 13.75754097 44.22969462 10.36839673 42.17578125 7.07421875 C41 5 41 5 41 2 C36.19450253 1.97531553 31.38904182 1.95714745 26.58349609 1.94506836 C24.94807289 1.94003379 23.3126542 1.93320573 21.67724609 1.92456055 C19.32909025 1.91245665 16.98099381 1.906763 14.6328125 1.90234375 C13.89942657 1.89718246 13.16604065 1.89202118 12.41043091 1.88670349 C8.57877344 1.816844 8.57877344 1.816844 5 3 C5.78697325 6.41021743 6.87119943 9.68885166 8 13 C7.34 13 6.68 13 6 13 C4.99491199 11.21118264 3.99607264 9.41885304 3 7.625 C2.1646875 6.12839844 2.1646875 6.12839844 1.3125 4.6015625 C0 2 0 2 0 0 Z " fill="#7DBD43" transform="translate(113,185)"/>
<path d="M0 0 C2.21407086 0.05525051 4.42827446 0.10542765 6.64257812 0.15039062 C12.03547602 0.27086617 17.42336315 0.45426002 22.8125 0.6875 C21.87975891 1.81644876 20.94109878 2.94050876 20 4.0625 C19.47792969 4.68898437 18.95585937 5.31546875 18.41796875 5.9609375 C16.8125 7.6875 16.8125 7.6875 13.8125 9.6875 C15.01631448 7.19388429 16.26678722 5.00606917 17.8125 2.6875 C12.29932029 2.43846825 6.78947556 2.2580251 1.27197266 2.13818359 C-0.6003527 2.08819041 -2.47229349 2.02016545 -4.34326172 1.93310547 C-15.5967449 0.99999553 -15.5967449 0.99999553 -25.70800781 4.95800781 C-28.16360979 7.41360979 -30.24656635 9.81336286 -32.1875 12.6875 C-33.1775 12.3575 -34.1675 12.0275 -35.1875 11.6875 C-26.2099503 -2.05703984 -15.09667932 -0.65569277 0 0 Z " fill="#70B453" transform="translate(367.1875,184.3125)"/>
<path d="M0 0 C0.69726562 1.75634766 0.69726562 1.75634766 1 4 C-0.24414062 5.91943359 -0.24414062 5.91943359 -2.15625 7.8984375 C-3.19652344 8.98898438 -3.19652344 8.98898438 -4.2578125 10.1015625 C-5.36769531 11.22691406 -5.36769531 11.22691406 -6.5 12.375 C-7.20898438 13.1175 -7.91796875 13.86 -8.6484375 14.625 C-12.89478848 19.02689498 -17.29196111 23.09728355 -22 27 C-22.66 26.67 -23.32 26.34 -24 26 C-23.35933594 25.3709375 -22.71867187 24.741875 -22.05859375 24.09375 C-16.80959387 18.89950869 -11.78944442 13.61752594 -7 8 C-5.68932757 6.49840284 -4.37686003 4.99837043 -3.0625 3.5 C-2.47597656 2.8296875 -1.88945312 2.159375 -1.28515625 1.46875 C-0.86105469 0.9840625 -0.43695313 0.499375 0 0 Z " fill="#1A823E" transform="translate(317,212)"/>
<path d="M0 0 C11.22 0 22.44 0 34 0 C34 0.33 34 0.66 34 1 C33.08710205 0.99887207 32.1742041 0.99774414 31.23364258 0.99658203 C27.831452 1.00653439 24.43168636 1.04316313 21.0300293 1.09765625 C19.56072088 1.11577389 18.09124264 1.12339238 16.62182617 1.12011719 C14.50306948 1.11724722 12.38780262 1.15267861 10.26953125 1.1953125 C8.99698486 1.20578613 7.72443848 1.21625977 6.41333008 1.22705078 C1.73809905 2.2857577 0.68368397 4.13029363 -2 8 C-2 5 -2 5 0 0 Z " fill="#84C242" transform="translate(234,185)"/>
<path d="M0 0 C0.99 0.66 1.98 1.32 3 2 C2.50693359 2.67869141 2.50693359 2.67869141 2.00390625 3.37109375 C-3.42751659 11.15760508 -7.65064519 19.58158213 -12 28 C-12.33 27.34 -12.66 26.68 -13 26 C-11.92016602 23.38623047 -11.92016602 23.38623047 -10.25390625 20.1171875 C-9.66416016 18.95058594 -9.07441406 17.78398437 -8.46679688 16.58203125 C-7.83220174 15.3462666 -7.19743385 14.11059065 -6.5625 12.875 C-5.93091232 11.63188018 -5.30004346 10.38839486 -4.66992188 9.14453125 C-3.12033581 6.09267473 -1.5634264 3.04478318 0 0 Z " fill="#083512" transform="translate(274,186)"/>
<path d="M0 0 C1 3 1 3 0.28735352 4.90112305 C-0.28607788 5.94586792 -0.28607788 5.94586792 -0.87109375 7.01171875 C-1.28037109 7.76904297 -1.68964844 8.52636719 -2.11132812 9.30664062 C-2.54896484 10.09232422 -2.98660156 10.87800781 -3.4375 11.6875 C-4.0881543 12.88342773 -4.0881543 12.88342773 -4.75195312 14.10351562 C-5.82574763 16.07410554 -6.90864182 18.03909927 -8 20 C-9 18 -9 18 -8.14453125 15.390625 C-5.81705023 9.90295715 -3.58458139 4.77944185 0 0 Z " fill="#1C8B4A" transform="translate(236,259)"/>
<path d="M0 0 C0.33 0 0.66 0 1 0 C1.63934602 5.11476819 -0.59466453 8.67254378 -3 13 C-3.66 13 -4.32 13 -5 13 C-5.12375 13.763125 -5.2475 14.52625 -5.375 15.3125 C-6 18 -6 18 -8 21 C-9 18 -9 18 -8.39501953 16.22241211 C-8.06099121 15.58053955 -7.72696289 14.93866699 -7.3828125 14.27734375 C-6.84333984 13.22256836 -6.84333984 13.22256836 -6.29296875 12.14648438 C-5.90753906 11.41751953 -5.52210938 10.68855469 -5.125 9.9375 C-4.74730469 9.20466797 -4.36960938 8.47183594 -3.98046875 7.71679688 C-3.27937759 6.35827681 -2.57421196 5.00184661 -1.86376953 3.64819336 C-1.22988934 2.43866109 -0.61069999 1.22139999 0 0 Z " fill="#6BB94D" transform="translate(227,199)"/>
<path d="M0 0 C-1.47721422 3.45201639 -3.43794001 5.64961936 -6.125 8.25 C-6.84945313 8.95640625 -7.57390625 9.6628125 -8.3203125 10.390625 C-8.87460937 10.92171875 -9.42890625 11.4528125 -10 12 C-10.99 11.67 -11.98 11.34 -13 11 C-11.21427748 9.16052663 -9.42197551 7.32842259 -7.625 5.5 C-7.11710937 4.97535156 -6.60921875 4.45070312 -6.0859375 3.91015625 C-2.2265625 0 -2.2265625 0 0 0 Z " fill="#48A040" transform="translate(345,185)"/>
<path d="M0 0 C1.98 0 3.96 0 6 0 C5.34 0.66 4.68 1.32 4 2 C4.2127322 3.8618034 4.2127322 3.8618034 5 6 C5.350625 7.0725 5.70125 8.145 6.0625 9.25 C6.5265625 10.61125 6.5265625 10.61125 7 12 C6.34 12 5.68 12 5 12 C4.16180842 10.37750059 3.3295884 8.75191503 2.5 7.125 C2.0359375 6.22007812 1.571875 5.31515625 1.09375 4.3828125 C0 2 0 2 0 0 Z " fill="#76BA39" transform="translate(114,186)"/>
<path d="M0 0 C0.66 0 1.32 0 2 0 C0.68938409 4.23429756 -0.94356259 8.07407404 -3 12 C-3.66 11.34 -4.32 10.68 -5 10 C-3.35 6.7 -1.7 3.4 0 0 Z " fill="#3F9F52" transform="translate(245,240)"/>
<path d="M0 0 C2.64 0 5.28 0 8 0 C7.06725891 1.12894876 6.12859878 2.25300876 5.1875 3.375 C4.66542969 4.00148437 4.14335937 4.62796875 3.60546875 5.2734375 C2 7 2 7 -1 9 C0.20381448 6.50638429 1.45428722 4.31856917 3 2 C2.01 1.34 1.02 0.68 0 0 Z " fill="#6CB93F" transform="translate(382,185)"/>
<path d="M0 0 C0.33 0 0.66 0 1 0 C1.61528766 5.07612318 -0.38341651 7.82982006 -3 12 C-3.66 12 -4.32 12 -5 12 C-3.68938409 7.76570244 -2.05643741 3.92592596 0 0 Z " fill="#56AF50" transform="translate(217,219)"/>
</svg>
